<svg width="116" height="100" viewBox="0 0 116 100" fill="none" xmlns="http://www.w3.org/2000/svg">
<rect x="0.563965" width="114.692" height="100" rx="30" fill="#47A4EA"/>
<path d="M59.0948 76.4787H59.0544C55.9742 76.4787 52.8915 76.3978 49.8922 76.2388C49.6384 76.2252 49.4435 75.9968 49.4557 75.7283C49.4685 75.4605 49.6788 75.2342 49.9371 75.2661C52.9212 75.4238 55.9884 75.504 59.0532 75.504C59.307 75.504 59.5327 75.7222 59.5327 75.9914C59.5333 76.2599 59.348 76.4787 59.0948 76.4787ZM68.2724 76.2361C68.0289 76.2361 67.8269 76.0342 67.8141 75.7732C67.8 75.5054 67.9962 75.2749 68.25 75.2627C71.3904 75.0935 74.4616 74.8358 77.3776 74.4967C77.6212 74.4681 77.8564 74.6591 77.8846 74.9276C77.9122 75.1948 77.7301 75.4354 77.4782 75.4653C74.5449 75.8065 71.4551 76.0655 68.2975 76.2354C68.2878 76.2361 68.2801 76.2361 68.2724 76.2361ZM40.7622 75.4768C40.7456 75.4768 40.7289 75.4761 40.7116 75.4741C37.4545 75.0969 34.3866 74.6183 31.5917 74.0515C31.3424 74.0005 31.1789 73.7456 31.227 73.4812C31.2751 73.2168 31.5103 73.0448 31.7648 73.0944C34.5353 73.6565 37.579 74.131 40.811 74.5055C41.0629 74.5347 41.2456 74.7747 41.218 75.0432C41.193 75.2926 40.9936 75.4768 40.7622 75.4768ZM86.5076 74.044C86.2928 74.044 86.0992 73.8822 86.0576 73.6491C86.0095 73.3847 86.1736 73.1298 86.4217 73.0781C89.8634 72.3766 92.8261 71.5528 95.2255 70.6284C95.4652 70.536 95.728 70.6665 95.8146 70.92C95.9017 71.1736 95.7787 71.4529 95.5396 71.5447C93.0934 72.4868 90.0838 73.3243 86.5959 74.0365C86.5658 74.0412 86.5358 74.044 86.5076 74.044ZM22.8028 71.6032C22.7515 71.6032 22.6983 71.5936 22.6477 71.5746C17.9405 69.7747 15.5271 67.7064 15.4739 65.4252C15.4675 65.156 15.6688 64.9324 15.9226 64.9256C16.181 64.9501 16.3867 65.1322 16.3931 65.4C16.4348 67.1883 18.7662 69.0542 22.9592 70.657C23.1983 70.7488 23.322 71.0281 23.2362 71.2816C23.1676 71.4794 22.99 71.6032 22.8028 71.6032ZM102.179 65.8202C101.927 65.8202 101.722 65.604 101.72 65.3369C101.707 63.5431 99.3884 61.6692 95.1903 60.0596C94.9512 59.9679 94.8275 59.6892 94.9146 59.4356C95.0012 59.1814 95.2666 59.0509 95.5031 59.1434C100.222 60.9522 102.622 63.0333 102.64 65.3288C102.642 65.598 102.438 65.8182 102.184 65.8202L102.179 65.8202ZM22.6896 60.1168C22.5024 60.1168 22.3255 59.9937 22.2575 59.7959C22.1703 59.5437 22.2934 59.2637 22.5325 59.1713C24.9742 58.2278 27.9832 57.3884 31.4742 56.6739C31.7197 56.6229 31.9652 56.7956 32.012 57.06C32.0607 57.3244 31.8972 57.5793 31.6479 57.6309C28.2037 58.3351 25.2414 59.1617 22.8459 60.0874C22.7946 60.1078 22.7408 60.1168 22.6896 60.1168ZM86.4715 57.625C86.4433 57.625 86.4138 57.6222 86.383 57.6161C83.6175 57.0526 80.5741 56.5761 77.3368 56.201C77.0849 56.1717 76.9022 55.9311 76.9304 55.6633C76.9586 55.3955 77.1894 55.2045 77.4375 55.2324C80.699 55.6116 83.7676 56.0908 86.5573 56.6591C86.8067 56.7107 86.9689 56.965 86.9214 57.23C86.8798 57.4632 86.6869 57.625 86.4715 57.625ZM40.6424 56.2139C40.411 56.2139 40.2123 56.0297 40.186 55.7802C40.1585 55.5131 40.3405 55.2724 40.5924 55.2426C43.5251 54.9007 46.6135 54.6403 49.772 54.4697C50.0201 54.4384 50.2419 54.6614 50.2547 54.9319C50.2675 55.1997 50.0727 55.4301 49.8188 55.4424C46.6784 55.613 43.6072 55.8713 40.6926 56.2111C40.6759 56.2132 40.6591 56.2139 40.6424 56.2139ZM68.2331 55.4397C68.226 55.4397 68.2177 55.4397 68.21 55.439C65.2138 55.2792 62.1344 55.1984 59.0542 55.1984C58.8003 55.1984 58.5555 54.9802 58.5555 54.711C58.5555 54.4418 58.7208 54.2236 58.9753 54.2236H59.0548C62.1496 54.2236 65.2459 54.3052 68.2574 54.4663C68.51 54.4799 68.7061 54.7083 68.6933 54.9768C68.6811 55.2371 68.4767 55.4397 68.2331 55.4397Z" fill="white"/>
<path d="M56.3711 30.9774C56.2121 30.4343 55.916 29.9286 55.4724 29.5173C54.1756 28.3122 52.2089 28.4447 51.0833 29.8191L47.8198 33.7614L43.0101 32.8078C43.5844 30.2501 43.0864 28.0981 41.478 25.8047L53.9024 28.2761C55.2223 28.5426 56.1898 29.6513 56.3711 30.9774Z" fill="white"/>
<path d="M67.5136 46.05L67.3784 46.3627L64.9323 55.4172L59.1796 60.0244L51.4156 61.8194L62.7495 59.7606L63.9399 59.4771C63.9399 59.4771 62.7047 63.3745 62.6803 64.1283C62.6258 65.6924 63.2566 66.4468 63.6553 66.7874L57.3272 67.7655L49.7996 68.923L48.9355 69.0562L48.5592 69.1147C46.9214 69.2112 45.4207 68.7041 44.9432 67.4854L37.3137 48.6056L23.2258 45.759C21.5309 45.4198 20.2847 43.5166 21.5085 40.6468L26.9276 30.4131C26.6219 32.6466 27.884 36.101 30.0681 37.5596L28.3763 40.6468L34.7898 41.9485C35.9936 40.3797 42.168 38.0354 44.0109 38.3439L45.6148 42.2387L46.7064 45.0481L47.0244 45.8434L51.1283 55.995L51.7308 57.4774L67.5136 46.05Z" fill="white"/>
<path d="M82.7618 72.4293C82.2618 73.4292 81.2612 74.0076 80.1913 74.0076C79.6785 74.0076 79.1567 73.8744 78.6573 73.5964L66.9688 66.9535C66.9688 66.9535 67.7226 66.6136 68.0604 65.333L69.0559 61.3213L81.3522 68.1728C82.8752 69.0171 83.5023 70.921 82.7618 72.4293Z" fill="white"/>
<path d="M55.3487 34.3775L46.8883 44.5827L44.3761 38.3734L48.0024 33.9912L51.0159 30.3378C52.0729 29.0721 53.6903 28.4271 55.253 29.6866C55.6831 30.0332 57.1358 31.7373 55.3485 34.3773L55.3487 34.3775Z" fill="white"/>
<path d="M42.7651 30.9723C42.7651 31.8063 42.644 32.6043 42.4222 33.3635C41.4305 36.6037 38.5016 38.9569 35.0484 38.9569C33.5285 38.9569 32.1073 38.5009 30.9074 37.7056C28.7516 36.3006 27.319 33.8047 27.319 30.9724C27.319 30.884 27.319 30.7943 27.3318 30.7202C27.4529 26.4285 30.86 23 35.0484 23C37.8042 23 40.2298 24.4927 41.5876 26.7575C42.3382 27.9735 42.7651 29.4165 42.7651 30.9725L42.7651 30.9723Z" fill="white"/>
<path d="M70.4295 45.46C72.6802 45.9277 72.1634 48.4399 72.0955 48.6969L68.4416 62.36L67.7191 65.0415C67.5435 65.749 67.1217 66.32 66.5852 66.6503C66.0377 67.0031 65.382 67.1295 64.7282 66.9318C64.4756 66.8481 64.2403 66.7244 64.0243 66.5661C63.3974 66.0889 63.0262 65.2889 63.0262 64.427C63.0262 64.168 63.0564 63.9077 63.1243 63.6487L63.8365 61.0283L67.5134 47.154C67.5134 47.1547 67.823 44.9182 70.4295 45.46Z" fill="white"/>
<path d="M70.4295 45.46C72.6802 45.9277 72.1634 48.4399 72.0955 48.6969L68.4416 62.36L67.7191 65.0415C67.5435 65.749 67.1217 66.32 66.5852 66.6503C66.0377 67.0031 65.382 67.1295 64.7282 66.9318C64.4756 66.8481 64.2403 66.7244 64.0243 66.5661C63.3974 66.0889 63.0262 65.2889 63.0262 64.427C63.0262 64.168 63.0564 63.9077 63.1243 63.6487L63.8365 61.0283L67.5134 47.154C67.5134 47.1547 67.823 44.9182 70.4295 45.46Z" fill="white"/>
<path d="M70.4295 45.46C72.6802 45.9277 72.1634 48.4399 72.0955 48.6969L68.4416 62.36L67.7191 65.0415C67.5435 65.749 67.1217 66.32 66.5852 66.6503C66.0377 67.0031 65.382 67.1295 64.7282 66.9318C64.4756 66.8481 64.2403 66.7244 64.0243 66.5661C63.3974 66.0889 63.0262 65.2889 63.0262 64.427C63.0262 64.168 63.0564 63.9077 63.1243 63.6487L63.8365 61.0283L67.5134 47.154C67.5134 47.1547 67.823 44.9182 70.4295 45.46Z" fill="white"/>
</svg>
