<svg width="115" height="100" viewBox="0 0 115 100" fill="none" xmlns="http://www.w3.org/2000/svg">
<rect x="0.12793" width="114.692" height="100" rx="30" fill="#47A4EA"/>
<path d="M66.6556 33.0358C66.7029 32.9691 66.7764 32.9299 66.8554 32.9299H67.7311C68.852 32.9313 69.9408 32.5349 70.8247 31.8039C71.708 31.0729 72.3353 30.0494 72.606 28.8965C72.6166 28.8502 72.6394 28.8077 72.6715 28.7736L74.4242 26.9162L73.7277 26.5472L73.7273 26.5477C73.4655 26.4092 73.1739 26.3464 72.8819 26.3657C72.5898 26.3846 72.308 26.4853 72.0641 26.6573L69.9992 28.116L65.0137 32.3426H65.0133C64.9691 32.3804 64.9143 32.4008 64.8577 32.4008H61.3035L63.882 36.9549L66.6556 33.0358Z" fill="white"/>
<path d="M64.3818 29.0112L66.4341 30.4608L68.5316 28.6828L68.0487 26.642C67.7834 25.5141 67.1306 24.5322 66.2183 23.8881C65.2017 23.1708 64.475 22.0778 64.1793 20.8228L63.7245 18.8936L63.4623 19.1714V19.1709C62.1845 20.5256 61.5473 22.4157 61.7251 24.3214C61.9035 26.2275 62.8782 27.9484 64.3821 29.0112H64.3818Z" fill="white"/>
<path d="M68.5333 26.5138L68.9605 28.3198L69.6971 27.6956C69.7029 27.6909 69.7087 27.6862 69.7145 27.6824L69.9713 27.501H69.9708C70.3079 25.866 70.3467 24.1782 70.0863 22.5282L69.7104 20.1382L68.3496 22.3009V22.3004C67.9625 22.9171 67.6437 23.5786 67.4003 24.2728C67.9487 24.9078 68.3384 25.6785 68.5342 26.5144L68.5333 26.5138Z" fill="white"/>
<path d="M49.8132 32.2849L45.9252 35.2367L49.9578 38.0666L51.0921 33.8711C51.1157 33.7832 51.1813 33.7142 51.2646 33.6896C52.1689 33.4175 52.9652 32.8405 53.5333 32.0462C54.1009 31.2519 54.4095 30.2833 54.4122 29.2868V28.0124C54.4122 27.933 54.4456 27.8579 54.5036 27.8078C54.5615 27.7577 54.6378 27.7374 54.7109 27.753L55.567 27.9344L55.3173 27.6698C55.2981 27.6495 55.2825 27.6263 55.2705 27.6013L54.8103 26.626C54.6244 26.2319 54.2445 25.9834 53.8289 25.9834C53.4134 25.9834 53.0339 26.2319 52.848 26.626L49.8851 32.1994C49.8672 32.2329 49.8427 32.2622 49.8132 32.2849Z" fill="white"/>
<path d="M47.8603 30.0034L49.7642 31.3491L51.5924 27.9106L51.5269 27.6342C51.2607 26.5067 50.6074 25.5248 49.6951 24.8803C48.6794 24.163 47.953 23.0705 47.6578 21.8155L47.2022 19.8867L46.9409 20.1646C45.6621 21.5183 45.0235 23.4088 45.2019 25.315C45.3799 27.2217 46.3554 28.9425 47.8603 30.0043L47.8603 30.0034Z" fill="white"/>
<path d="M58.3423 50.8505C59.0843 51.0319 59.8637 50.8453 60.4599 50.3434C61.056 49.8416 61.4033 49.079 61.4042 48.2724V45.6967C61.4047 45.6835 61.406 45.6702 61.4083 45.657C61.3614 45.5909 61.3151 45.5233 61.2709 45.4533L59.7737 43.0732L59.6114 43.3312H59.6109C59.0201 44.2682 58.2246 45.0404 57.2919 45.5814C57.2023 45.6334 57.0921 45.6221 57.0132 45.5531C56.6467 45.2337 56.1433 45.1557 55.7059 45.3504C55.268 45.5446 54.968 45.9802 54.9265 46.4811C54.9234 46.5199 54.9211 46.5605 54.9211 46.6007C54.9171 47.3373 55.4714 47.9407 56.166 47.9558C56.3016 47.9596 56.4095 48.0768 56.409 48.2204V53.3042C56.409 53.3746 56.3827 53.4417 56.3359 53.4914C56.2891 53.541 56.2258 53.5688 56.1593 53.5688H53.9227C54.0074 54.9212 54.7374 56.1337 55.8588 56.7853C56.9802 57.4369 58.3375 57.4369 59.4589 56.7853C60.5803 56.1337 61.3102 54.9212 61.3949 53.5688H59.1571C59.0193 53.5688 58.9074 53.4502 58.9074 53.3042V51.4477C58.6791 51.4477 58.4521 51.4203 58.2296 51.3659C58.0954 51.3328 58.0116 51.1911 58.0423 51.0484C58.0735 50.9057 58.2078 50.8168 58.342 50.8499L58.3423 50.8505ZM59.0513 47.2182H59.8004V45.8951C59.8004 45.7491 59.9118 45.6305 60.0501 45.6305C60.1878 45.6305 60.2998 45.7491 60.2998 45.8951V47.4828C60.2998 47.5532 60.2734 47.6203 60.2266 47.6699C60.1798 47.7195 60.116 47.7474 60.0501 47.7474H59.0513C58.913 47.7474 58.8016 47.6288 58.8016 47.4828C58.8016 47.3368 58.913 47.2182 59.0513 47.2182ZM57.6311 48.763C57.5156 48.6831 57.483 48.5191 57.5584 48.3968C57.6342 48.2744 57.7889 48.2399 57.9044 48.3197C58.3627 48.6373 58.8987 48.8064 59.4463 48.806H59.7655H59.7651C59.9033 48.806 60.0148 48.9246 60.0148 49.0706C60.0148 49.2166 59.9033 49.3352 59.7651 49.3352H59.4458H59.4463C58.8015 49.3357 58.1705 49.1367 57.6311 48.763Z" fill="white"/>
<path d="M64.1845 46.9071C63.3311 45.9564 62.7506 44.7679 62.5116 43.4804L61.5101 42.7725H61.5097C60.5956 42.1271 59.4831 41.8766 58.4001 42.0732C57.3175 42.2698 56.3468 42.8982 55.6873 43.8296L54.9119 44.9259V45.2977C55.2021 44.9774 55.5901 44.7751 56.0065 44.7274C56.4234 44.6792 56.843 44.7884 57.1917 45.035C57.9943 44.5403 58.6801 43.857 59.196 43.0386L59.5656 42.4503C59.612 42.3766 59.69 42.3322 59.7734 42.3322C59.8568 42.3322 59.9348 42.3761 59.9812 42.4499L61.6867 45.1607C62.2614 46.0774 63.163 46.7076 64.1845 46.9071Z" fill="white"/>
<path d="M54.9122 42.9379V44.0426L55.2889 43.5106C56.0246 42.4706 57.1082 41.7693 58.3169 41.5496C59.5253 41.3304 60.7675 41.6096 61.7877 42.3307L62.3883 42.755L62.3022 42.2452L62.3018 42.2447C62.0819 40.9381 61.257 39.8363 60.1067 39.3118C58.9559 38.7877 57.6334 38.912 56.5873 39.642C55.5417 40.3721 54.9122 41.6105 54.9122 42.9379Z" fill="white"/>
<path d="M67.4946 53.4425C67.4492 53.521 67.3685 53.5692 67.2815 53.5692H61.8951C61.8069 55.1095 60.9793 56.4941 59.7036 57.2373C58.4275 57.9811 56.8808 57.9792 55.6063 57.2335C54.3315 56.4874 53.5066 55.1011 53.421 53.5607C53.4174 53.5597 53.4134 53.5607 53.4098 53.5588L40.7612 49.7295L39.115 55.8363L44.743 57.5412V57.5407C44.85 57.5733 44.924 57.6768 44.924 57.7949L44.9276 82.6762H70.3926L70.39 60.6038C70.3904 60.5546 70.4029 60.5069 70.427 60.4653L78.1863 47.0575L73.0689 43.7764L67.4946 53.4425Z" fill="white"/>
<path d="M87.1915 19.6065C87.0917 19.4242 86.9271 19.2914 86.7345 19.2385L82.3898 18.0264C82.1977 17.9725 81.993 18.0018 81.8213 18.1081C81.6492 18.2144 81.5244 18.3883 81.474 18.5925L80.4163 22.8498C80.3936 22.941 80.3272 23.0124 80.2411 23.0374C80.155 23.0625 80.0632 23.0369 79.9999 22.9708L78.4544 21.3605L78.454 21.361C78.1905 21.0855 77.7687 21.0789 77.4976 21.3459C77.2265 21.6133 77.2015 22.0594 77.4414 22.358L79.7217 25.2054L79.7212 25.2059C79.7739 25.2715 79.793 25.3604 79.7725 25.444L76.8559 37.1913C76.8497 37.2159 76.8399 37.24 76.8274 37.2617L73.3298 43.326L78.4477 46.6072L81.6724 41.0353C82.1664 40.1796 82.5401 39.2521 82.7813 38.2814L87.2683 20.208C87.3196 20.0049 87.2919 19.788 87.1916 19.6061L87.1915 19.6065Z" fill="white"/>
<path d="M35.345 48.0901C35.2777 48.0697 35.2215 48.0201 35.1903 47.9535C35.1591 47.8869 35.1555 47.8094 35.181 47.7399L38.8975 37.6106H38.8979C38.9273 37.5302 38.992 37.4702 39.0709 37.4494L42.5791 36.5337C42.9385 36.4401 43.165 36.0631 43.0928 35.678C43.0205 35.2933 42.6754 35.0368 42.3093 35.0958L40.0906 35.453C40.0027 35.4672 39.914 35.4304 39.8582 35.3566C39.8025 35.2834 39.7882 35.1837 39.8203 35.0958L41.2186 31.2869C41.368 30.8781 41.1767 30.4189 40.7915 30.2601L36.6029 28.5331C36.4178 28.457 36.2118 28.4617 36.0299 28.5463C35.8484 28.6314 35.7058 28.7892 35.6344 28.9857L29.1486 46.6575C28.6269 48.0793 28.6947 49.6685 29.3345 51.0345C29.9748 52.4006 31.1283 53.4179 32.5124 53.837L38.6344 55.6912L40.2806 49.5849L35.345 48.0901Z" fill="white"/>
<path d="M55.3002 37.1475L55.1482 37.6323C55.1138 37.741 55.0184 37.8138 54.911 37.8138C54.4437 37.8142 54.0647 38.2154 54.0642 38.7106V38.8075C54.0651 39.3022 54.4437 39.7029 54.911 39.7029H55.7238C56.699 38.713 58.0629 38.2788 59.3912 38.5358C59.3128 38.1162 58.9654 37.8142 58.5623 37.8138C58.4544 37.8138 58.359 37.741 58.3251 37.6333L58.1717 37.1475H58.1713C58.0772 36.8389 57.8043 36.631 57.498 36.6348C57.2759 36.6325 57.0664 36.7444 56.9362 36.9349C56.8889 37.0015 56.8149 37.0407 56.7364 37.0407C56.6579 37.0407 56.5839 37.0015 56.5367 36.9349C56.3788 36.7118 56.1175 36.6003 55.858 36.6447C55.599 36.6892 55.384 36.8824 55.3007 37.1466L55.3002 37.1475Z" fill="white"/>
</svg>
