<svg width="115" height="100" viewBox="0 0 115 100" fill="none" xmlns="http://www.w3.org/2000/svg">
<rect width="114.692" height="100" rx="30" fill="#47A4EA"/>
<path d="M58.6277 49.0706C57.5661 49.0709 56.7057 49.9315 56.7057 50.9931V54.9595C56.7057 58.0637 59.1772 60.5404 62.0821 61.6349C70.9214 64.9654 74.9753 74.1208 75.1793 74.5926C75.3576 75.0062 75.3228 75.4864 75.0863 75.8674C74.8507 76.2489 74.4456 76.4788 74.0102 76.4788H36.8364C36.4014 76.4788 35.9964 76.2489 35.7599 75.8679C35.5238 75.4869 35.489 75.0071 35.6669 74.593C35.8712 74.1205 39.9258 64.9646 48.766 61.634C51.6705 60.5398 54.1416 58.0634 54.1416 54.9597V50.3521C54.1416 49.6442 53.5677 49.0703 52.8599 49.0703C43.6707 49.0703 36.1958 41.273 36.1958 31.6899V29.0162C36.1958 28.2781 36.7703 27.6794 37.4775 27.6794H40.041C46.7377 27.6794 61.5579 26.5275 67.8417 24.2125C69.973 23.4274 72.2649 23 74.651 23H77.8556C78.5634 23 79.1374 23.5992 79.1374 24.3368V27.6792C79.1374 39.4746 69.937 49.0706 58.6277 49.0706Z" fill="white"/>
</svg>
