<svg width="116" height="100" viewBox="0 0 116 100" fill="none" xmlns="http://www.w3.org/2000/svg">
<rect x="0.691772" width="114.692" height="100" rx="30" fill="#47A4EA"/>
<path d="M51.9246 81.4151C47.8773 79.8625 44.1867 77.4197 41.0942 74.2466C44.1867 71.0736 47.8773 68.6307 51.9246 67.0781C50.0138 68.9112 48.9235 71.5151 48.9235 74.2466C48.9235 76.9782 50.0139 79.582 51.9246 81.4151Z" fill="white"/>
<path d="M59.3408 74.2474C59.3408 75.0101 58.7572 75.6285 58.0374 75.6285C57.3177 75.6285 56.7341 75.0101 56.7341 74.2474C56.7341 73.4847 57.3177 72.8662 58.0374 72.8662C58.7572 72.8662 59.3408 73.4847 59.3408 74.2474Z" fill="white"/>
<path d="M58.0376 67.3413C56.3095 67.3413 54.6519 68.0689 53.4294 69.3637C52.2075 70.6591 51.521 72.4158 51.521 74.2471C51.521 76.0785 52.2076 77.835 53.4294 79.1306C54.6518 80.4255 56.3095 81.153 58.0376 81.153C59.7657 81.153 61.4232 80.4254 62.6458 79.1306C63.8677 77.8352 64.5542 76.0785 64.5542 74.2471C64.5542 72.4158 63.8676 70.6593 62.6458 69.3637C61.4234 68.0688 59.7657 67.3413 58.0376 67.3413ZM58.0376 78.3906C57.0008 78.3906 56.0057 77.9541 55.2728 77.1772C54.5398 76.4003 54.1277 75.3458 54.1277 74.2472C54.1277 73.1486 54.5396 72.094 55.2728 71.3173C56.0059 70.5405 57.0009 70.1038 58.0376 70.1038C59.0743 70.1038 60.0694 70.5403 60.8024 71.3173C61.5354 72.0942 61.9475 73.1486 61.9475 74.2472C61.9475 75.3458 61.5355 76.4004 60.8024 77.1772C60.0693 77.954 59.0743 78.3906 58.0376 78.3906Z" fill="white"/>
<path d="M74.981 74.2471C71.8885 77.4202 68.1979 79.863 64.1506 81.4156C66.0614 79.5825 67.1517 76.9787 67.1517 74.2471C67.1517 71.5156 66.0613 68.9117 64.1506 67.0786C68.1979 68.6312 71.8885 71.0741 74.981 74.2471Z" fill="white"/>
<path d="M58.0376 19.0004C40.2738 19.0004 29.3646 23.8209 29.3646 27.2874C29.3693 27.5563 29.4321 27.8208 29.5473 28.0606C30.2252 29.5935 32.6753 31.2095 36.2984 32.4939V32.4946C36.829 32.6845 37.1857 33.2129 37.1845 33.8067V47.6183L53.2414 31.8036C53.7464 31.2863 54.5476 31.2863 55.0526 31.8036L62.1818 39.3587L71.5005 30.3811C72.0043 29.8724 72.7956 29.8724 73.2989 30.3811L78.8904 36.3891V33.8062C78.8892 33.2124 79.2459 32.684 79.7765 32.4941C83.3996 31.2097 85.8497 29.5937 86.5147 28.0879C86.6369 27.8407 86.7038 27.5663 86.7102 27.287C86.7102 23.8205 75.8014 19 58.0372 19L58.0376 19.0004ZM43.7011 35.5744C42.3187 35.5744 40.9926 34.9924 40.0146 33.9565C39.0371 32.92 38.4878 31.5148 38.4878 30.0498C38.4878 28.5848 39.0371 27.1795 40.0146 26.143C40.9927 25.1072 42.3187 24.5251 43.7011 24.5251C45.0835 24.5251 46.4096 25.1072 47.3876 26.143C48.3651 27.1795 48.9144 28.5848 48.9144 30.0498C48.9144 31.5148 48.3651 32.9201 47.3876 33.9565C46.4096 34.9924 45.0835 35.5744 43.7011 35.5744ZM81.4973 34.787V69.1236C84.7946 67.7425 86.7106 66.0573 86.7106 64.5793V31.9428C85.1152 33.1587 83.358 34.1175 81.4973 34.7877V34.787ZM72.3741 33.3368L58.9499 46.2642V46.2648C58.7009 46.5047 58.3739 46.6336 58.0376 46.6237C57.5 46.6224 57.0182 46.271 56.8245 45.7389C56.6313 45.2068 56.7663 44.6037 57.1643 44.2202L60.2398 41.2508L54.1276 34.7322L37.1845 51.3062V56.1402C43.9955 54.2929 51.0078 53.4148 58.0376 53.5296C65.0703 53.4377 72.0826 54.3386 78.8906 56.2094V40.2841L72.3741 33.3368ZM29.3646 31.9557V64.5796C29.3646 66.0576 31.2806 67.7007 34.5779 69.1239V34.7873C32.7184 34.114 30.9618 33.1558 29.3646 31.9424V31.9557Z" fill="white"/>
</svg>
